<?xml version="1.0" encoding="iso-8859-1"?>
<!-- Generator: Adobe Illustrator 16.0.0, SVG Export Plug-In . SVG Version: 6.00 Build 0)  -->
<!DOCTYPE svg PUBLIC "-//W3C//DTD SVG 1.1//EN" "http://www.w3.org/Graphics/SVG/1.1/DTD/svg11.dtd">
<svg version="1.1" id="Capa_1" xmlns="http://www.w3.org/2000/svg" xmlns:xlink="http://www.w3.org/1999/xlink" x="0px" y="0px"
	 width="380.152px" height="380.152px" viewBox="0 0 380.152 380.152" style="enable-background:new 0 0 380.152 380.152;"
	 xml:space="preserve">
<g>
	<path d="M12.495,215.983c1.028,0.945,2.336,1.412,3.638,1.412c1.396,0,2.792-0.54,3.843-1.61
		c79.89-81.634,213.551-86.151,214.889-86.188c1.927-0.051,3.686-1.129,4.594-2.827c0.914-1.695,0.841-3.753-0.174-5.386
		c-11.479-18.439-4.714-32.656-4.44-33.216c1.261-2.457,0.457-5.468-1.862-6.966c-2.321-1.501-5.396-1-7.118,1.155
		c-12.374,15.464-34.201,19.727-106.843,33.904C44.122,130.875,2.542,196.54,0.81,199.333c-1.365,2.194-0.971,5.049,0.934,6.797
		L12.495,215.983z"/>
	<g>
		<path d="M325.375,20.385c0.981-1.05,1.496-2.452,1.443-3.887c-0.052-1.436-0.693-2.791-1.753-3.759l-9.858-8.961
			c-1.843-1.672-4.604-1.869-6.655-0.452c-2.064,1.415-49.151,34.108-52.525,71.358c-10.427,5.816-16.999,16.837-16.999,28.943
			c0,7.981,2.804,15.546,7.959,21.557c-1.434,21.184-14.604,186.013-80.043,232.065c-1.192,0.836-1.989,2.122-2.215,3.561
			c-0.231,1.434,0.137,2.897,1.013,4.062l8.063,10.751c0.908,1.208,2.284,1.984,3.795,2.127c0.163,0.016,0.336,0.021,0.504,0.021
			c1.333,0,2.619-0.493,3.618-1.401c3.118-2.834,76.367-70.273,84.81-142.216c7.957-67.95,14.64-92.855,28.562-106.611
			c0.083-0.079,0.179-0.181,0.272-0.288c0.631-0.636,1.208-1.313,1.774-2.001c0.005-0.005,0.604-0.725,0.609-0.729
			c4.955-6.058,7.575-13.289,7.575-20.895c0-6.483-1.922-12.73-5.57-18.208C300.446,77.407,304.614,42.632,325.375,20.385z
			 M269.48,117.959c-7.907,0-14.332-6.429-14.332-14.336c0-7.909,6.425-14.336,14.332-14.336c7.905,0,14.341,6.427,14.341,14.336
			C283.821,111.53,277.38,117.959,269.48,117.959z"/>
		<circle cx="269.48" cy="103.623" r="3.585"/>
		<path d="M379.296,68.457l-8.063-12.515c-0.992-1.535-2.703-2.451-4.529-2.451c-0.005,0-0.011,0-0.021,0
			c-1.833,0.005-3.55,0.968-4.531,2.518c-0.551,0.866-13.821,21.221-51.68,26.155c-1.775,0.231-3.308,1.338-4.115,2.932
			c-0.793,1.596-0.746,3.493,0.125,5.045c0.373,0.661,8.972,16.31,0.132,30.312c-1.286,2.045-1.06,4.693,0.556,6.478
			c1.045,1.154,2.504,1.769,3.984,1.769c0.814,0,1.638-0.184,2.404-0.564l28.673-14.331c0.571-0.292,1.093-0.677,1.526-1.15
			l34.941-37.627C380.389,73.226,380.625,70.52,379.296,68.457z"/>
	</g>
</g>
<g>
</g>
<g>
</g>
<g>
</g>
<g>
</g>
<g>
</g>
<g>
</g>
<g>
</g>
<g>
</g>
<g>
</g>
<g>
</g>
<g>
</g>
<g>
</g>
<g>
</g>
<g>
</g>
<g>
</g>
</svg>
