<?xml version="1.0" encoding="UTF-8" standalone="no"?>
<svg
   xmlns:dc="http://purl.org/dc/elements/1.1/"
   xmlns:cc="http://creativecommons.org/ns#"
   xmlns:rdf="http://www.w3.org/1999/02/22-rdf-syntax-ns#"
   xmlns:svg="http://www.w3.org/2000/svg"
   xmlns="http://www.w3.org/2000/svg"
   xmlns:sodipodi="http://sodipodi.sourceforge.net/DTD/sodipodi-0.dtd"
   xmlns:inkscape="http://www.inkscape.org/namespaces/inkscape"
   version="1.1"
   id="Capa_1"
   x="0px"
   y="0px"
   width="278.13507"
   height="383.61377"
   viewBox="0 0 278.13507 383.61376"
   xml:space="preserve"
   sodipodi:docname="pliers.svg"
   inkscape:version="1.0.1 (c497b03c, 2020-09-10)"><metadata
   id="metadata880"><rdf:RDF><cc:Work
       rdf:about=""><dc:format>image/svg+xml</dc:format><dc:type
         rdf:resource="http://purl.org/dc/dcmitype/StillImage" /><dc:title></dc:title></cc:Work></rdf:RDF></metadata><defs
   id="defs878" /><sodipodi:namedview
   pagecolor="#ffffff"
   bordercolor="#666666"
   borderopacity="1"
   objecttolerance="10"
   gridtolerance="10"
   guidetolerance="10"
   inkscape:pageopacity="0"
   inkscape:pageshadow="2"
   inkscape:window-width="2011"
   inkscape:window-height="1243"
   id="namedview876"
   showgrid="false"
   fit-margin-top="10"
   fit-margin-left="10"
   fit-margin-right="10"
   fit-margin-bottom="10"
   inkscape:zoom="1"
   inkscape:cx="147.61189"
   inkscape:cy="236.73657"
   inkscape:window-x="0"
   inkscape:window-y="22"
   inkscape:window-maximized="0"
   inkscape:current-layer="g841" />
<g
   id="g843"
   transform="translate(-47.944681,40.777616)">
	
	<g
   id="g841">
		
		
		
	<path
   id="path890"
   d="m 196.34581,114.76806 c 28.82969,37.03775 99.30015,89.03266 91.274,208.91625 0,0 0.094,2.90692 0.95177,4.08425 0.85065,1.17733 2.14536,1.95161 3.58857,2.15597 l 17.61202,2.85815 c 1.49624,0.21213 3.01794,-0.21213 4.18749,-1.17945 0.12657,-0.10395 0.25244,-0.22274 0.37123,-0.34154 0.94257,-0.94257 1.50331,-2.20051 1.56766,-3.54897 0.20081,-4.2087 4.30911,-103.69013 -40.59218,-160.53162 -42.42145,-53.67435 -54.8985,-53.61494 -54.78112,-73.186245 2.88703,-3.027149 4.8921,-23.454817 -1.29785,-30.102137 23.43542,-32.069059 13.45698,-87.184264 12.99807,-89.644289 -0.4483,-2.452246 -2.53993,-4.265268 -5.02541,-4.386183 l -13.30704,-0.634275 c -1.43401,-0.06505 -2.8454,0.43982 -3.89757,1.418456 -1.05218,0.977222 -1.67937,2.332745 -1.72817,3.768879 h 3e-5 C 207.21655,4.8265547 195.2838,38.180748 187.01222,44.337527 178.74064,38.180748 166.80789,4.8265547 165.75713,-25.584694 h 3e-5 c -0.0488,-1.436134 -0.67599,-2.791657 -1.72817,-3.768879 -1.05217,-0.978636 -2.46356,-1.483506 -3.89757,-1.418456 l -13.30704,0.634275 c -2.48548,0.120915 -4.57711,1.933937 -5.02541,4.386183 -0.45891,2.460025 -10.43735,57.57523 12.99807,89.644289 -6.18995,6.64732 -4.18488,27.074988 -1.29785,30.102137 0.11738,19.571305 -12.35967,19.511895 -54.781118,73.186245 -44.90129,56.84149 -40.79299,156.32292 -40.59218,160.53162 0.06435,1.34846 0.62509,2.6064 1.56766,3.54897 0.11879,0.1188 0.24466,0.23759 0.37123,0.34154 1.16955,0.96732 2.69125,1.39158 4.18749,1.17945 l 17.612021,-2.85815 c 1.44321,-0.20436 2.73792,-0.97864 3.58857,-2.15597 0.85777,-1.17733 0.95177,-4.08425 0.95177,-4.08425 -8.026153,-119.88359 62.444307,-171.8785 91.273997,-208.91625 1.71001,0.20184 6.59687,2.0232 9.33359,1.15947 2.73672,0.86373 7.62358,-0.95763 9.33359,-1.15947 z"
   sodipodi:nodetypes="ccccccsscccccccssccccccccccsscccccccc" /></g>
</g>
<g
   id="g845"
   transform="translate(-47.944681,40.777616)">
</g>
<g
   id="g847"
   transform="translate(-47.944681,40.777616)">
</g>
<g
   id="g849"
   transform="translate(-47.944681,40.777616)">
</g>
<g
   id="g851"
   transform="translate(-47.944681,40.777616)">
</g>
<g
   id="g853"
   transform="translate(-47.944681,40.777616)">
</g>
<g
   id="g855"
   transform="translate(-47.944681,40.777616)">
</g>
<g
   id="g857"
   transform="translate(-47.944681,40.777616)">
</g>
<g
   id="g859"
   transform="translate(-47.944681,40.777616)">
</g>
<g
   id="g861"
   transform="translate(-47.944681,40.777616)">
</g>
<g
   id="g863"
   transform="translate(-47.944681,40.777616)">
</g>
<g
   id="g865"
   transform="translate(-47.944681,40.777616)">
</g>
<g
   id="g867"
   transform="translate(-47.944681,40.777616)">
</g>
<g
   id="g869"
   transform="translate(-47.944681,40.777616)">
</g>
<g
   id="g871"
   transform="translate(-47.944681,40.777616)">
</g>
<g
   id="g873"
   transform="translate(-47.944681,40.777616)">
</g>
</svg>
